<?xml version="1.0" standalone="no"?>
<!DOCTYPE svg PUBLIC "-//W3C//DTD SVG 20010904//EN"
 "http://www.w3.org/TR/2001/REC-SVG-20010904/DTD/svg10.dtd">
<svg version="1.0" xmlns="http://www.w3.org/2000/svg"
 width="512.000000pt" height="512.000000pt" viewBox="0 0 512.000000 512.000000"
 preserveAspectRatio="xMidYMid meet">

<g transform="translate(0.000000,512.000000) scale(0.100000,-0.100000)"
fill="#000000" stroke="none">
<path d="M2398 5109 c-612 -35 -1202 -301 -1643 -743 -324 -324 -549 -713
-665 -1149 -111 -420 -111 -894 0 -1314 270 -1015 1147 -1769 2190 -1883 150
-17 441 -14 595 5 446 55 873 227 1232 497 127 95 335 297 436 423 299 371
477 780 553 1270 20 130 23 463 5 620 -50 430 -191 811 -429 1160 -103 151
-177 241 -307 371 -429 430 -1028 707 -1600 739 -205 11 -233 12 -367 4z m197
-1143 c188 -36 371 -111 511 -212 243 -172 412 -447 486 -787 20 -92 22 -130
23 -397 0 -247 -3 -311 -19 -395 -89 -478 -377 -823 -804 -965 -190 -63 -190
-63 -765 -69 l-527 -6 0 1428 0 1429 503 -5 c416 -3 517 -7 592 -21z"/>
<path d="M2000 2559 l0 -1021 253 4 c233 4 258 6 332 29 117 36 209 91 290
174 136 138 206 305 236 555 17 154 7 539 -19 655 -65 297 -219 495 -448 576
-106 38 -197 48 -426 49 l-218 0 0 -1021z"/>
</g>
</svg>
